<svg version="1.1" id="Layer_1" xmlns="http://www.w3.org/2000/svg" xmlns:xlink="http://www.w3.org/1999/xlink" x="0px" y="0px"
	 width="100%" viewBox="0 0 952 489" enable-background="new 0 0 952 489" xml:space="preserve">
<path fill="#32546A" opacity="1.000000" stroke="none" 
	d="
M620.000000,490.000000 
	C413.333344,490.000000 207.166672,490.000000 1.000000,490.000000 
	C1.000000,327.000000 1.000000,164.000000 1.000000,1.000000 
	C318.333344,1.000000 635.666687,1.000000 953.000000,1.000000 
	C953.000000,164.000000 953.000000,327.000000 953.000000,490.000000 
	C842.166687,490.000000 731.333313,490.000000 620.000000,490.000000 
M529.252563,282.127045 
	C532.173462,282.224304 535.136230,282.521576 534.944946,278.079559 
	C534.770386,274.027222 531.979370,274.367249 529.267029,274.395599 
	C527.434448,274.414734 525.549072,274.651947 523.786499,274.297882 
	C522.550476,274.049591 520.776611,273.204987 520.447693,272.223114 
	C517.241394,262.651154 514.289062,252.994095 511.082794,242.782791 
	C513.603149,242.782791 515.412415,242.782776 517.221741,242.782776 
	C554.044922,242.782730 590.868164,242.783813 627.691345,242.779282 
	C629.523499,242.779053 631.359436,242.797668 633.187073,242.692490 
	C640.609985,242.265381 647.798279,236.859711 647.404968,227.371399 
	C646.832703,213.565582 647.259094,199.718414 647.258667,185.888870 
	C647.257202,136.235840 647.286499,86.582794 647.234375,36.929817 
	C647.218994,22.302402 641.823364,16.992502 627.388916,16.992472 
	C524.250610,16.992266 421.112244,16.991619 317.973907,16.993313 
	C305.202179,16.993523 299.011169,23.111498 299.005707,35.956383 
	C298.978333,100.105415 298.988647,164.254471 298.998840,228.403519 
	C298.999939,235.296265 302.940948,240.411270 309.758728,241.982452 
	C312.482361,242.610123 315.367249,242.747269 318.179169,242.750870 
	C355.335571,242.798645 392.492065,242.782761 429.648529,242.782776 
	C431.584900,242.782791 433.521301,242.782776 435.789948,242.782776 
	C433.429291,250.535355 431.262970,257.674438 429.081207,264.808777 
	C426.257843,274.041046 426.252502,274.039459 416.600067,274.396027 
	C412.864441,274.534027 410.863098,276.996063 412.539124,280.065613 
	C413.194977,281.266815 415.678162,282.038177 417.331940,282.043060 
	C454.321472,282.152191 491.311371,282.126923 529.252563,282.127045 
M249.744690,354.340759 
	C248.399933,355.402130 247.055191,356.463470 246.433029,356.954498 
	C243.895157,353.903687 242.168686,349.793182 239.629868,349.208221 
	C234.641754,348.058868 229.201920,348.870026 224.023743,348.870026 
	C224.023743,378.338074 224.023743,407.236938 224.023743,436.189972 
	C231.808197,436.189972 239.214355,436.189972 247.004654,436.189972 
	C247.004654,433.990326 247.004669,432.176270 247.004654,430.362244 
	C247.004471,412.538818 246.993851,394.715363 247.023392,376.891998 
	C247.025833,375.419952 246.920929,373.768341 247.517914,372.509308 
	C249.558334,368.206116 258.668213,364.437317 264.155548,365.381775 
	C270.077606,366.401093 273.655029,369.817902 273.867859,376.821289 
	C274.408813,394.621674 274.339355,412.440643 274.508911,430.252258 
	C274.527405,432.194427 274.511414,434.136902 274.511414,436.206268 
	C282.485168,436.206268 289.870514,436.206268 297.712860,436.206268 
	C297.712860,434.042023 297.712769,432.243866 297.712891,430.445709 
	C297.713959,413.954865 297.713501,397.464050 297.717102,380.973206 
	C297.718262,375.735840 299.048248,370.983368 303.534363,367.835693 
	C308.110626,364.624725 313.117401,364.212891 318.189270,366.717377 
	C323.638062,369.407928 324.649811,374.528534 324.690948,379.812012 
	C324.823181,396.801544 324.741699,413.792755 324.742584,430.783295 
	C324.742676,432.558533 324.742584,434.333771 324.742584,436.282227 
	C332.766510,436.282227 340.185150,436.282227 347.778748,436.282227 
	C347.778748,415.045013 348.359436,394.077759 347.522217,373.167267 
	C347.131317,363.402832 342.083832,354.941803 332.516205,350.514313 
	C317.294739,343.470551 298.093231,348.738861 290.921478,360.728699 
	C290.632385,361.211975 290.013214,361.497772 289.371948,362.018402 
	C284.239471,351.653992 276.420715,345.767212 264.845062,347.841034 
	C259.803314,348.744293 255.147644,351.802246 249.744690,354.340759 
M562.007141,384.515259 
	C566.306030,398.155273 570.576538,411.804291 574.912537,425.432495 
	C578.462219,436.589172 578.496826,436.578156 590.171204,436.576813 
	C600.251526,436.575653 600.169189,436.550903 603.094788,426.811768 
	C608.064514,410.267761 613.149597,393.758423 618.493774,376.225372 
	C619.210083,378.523285 619.644897,379.873199 620.052124,381.231354 
	C625.017517,397.794464 630.057373,414.335968 634.886841,430.938660 
	C636.113831,435.156799 638.344971,436.994812 642.803162,436.642273 
	C646.775452,436.328156 650.807861,436.360382 654.784546,436.646179 
	C657.973145,436.875305 659.091858,435.384521 659.935852,432.634613 
	C665.739868,413.723236 671.685547,394.855377 677.560303,375.965668 
	C680.339661,367.028961 683.063110,358.074860 685.958740,348.650696 
	C679.901611,348.650696 674.585144,348.733429 669.272705,348.624756 
	C664.944763,348.536255 662.515259,350.438263 661.474487,354.687592 
	C659.179199,364.059235 656.644409,373.372009 654.235901,382.716187 
	C651.982422,391.458954 649.765808,400.211273 647.300598,409.869812 
	C646.599487,408.506226 646.234802,408.013275 646.078369,407.461334 
	C641.816223,392.424011 637.441040,377.416840 633.369873,362.327728 
	C629.532593,348.105896 629.677002,348.128113 614.792542,348.612732 
	C610.563232,348.750427 607.976929,350.410675 606.830383,354.631470 
	C604.695618,362.490509 602.322693,370.285126 600.025452,378.099640 
	C596.924011,388.650330 593.800476,399.194550 590.267761,411.159424 
	C589.576904,408.777527 589.276367,407.879974 589.056580,406.963104 
	C584.870972,389.500885 580.810059,372.006958 576.369934,354.609833 
	C575.820190,352.455963 573.403137,349.366821 571.611328,349.193542 
	C564.928955,348.547241 558.146484,348.935394 550.989807,348.935394 
	C554.718506,360.935974 558.261902,372.340057 562.007141,384.515259 
M367.391235,464.290985 
	C374.804779,464.290985 382.218323,464.290985 390.306763,464.290985 
	C390.306763,452.924469 390.306763,441.921112 390.306763,430.619934 
	C391.469971,431.084900 392.019165,431.160492 392.368896,431.465118 
	C403.683014,441.318604 426.987488,439.278198 438.394287,424.403992 
	C450.192505,409.019379 452.016296,381.550842 441.992920,363.260162 
	C434.925110,350.362823 421.724518,344.316101 407.794922,348.716278 
	C401.035522,350.851440 394.893524,354.941101 388.295563,358.234009 
	C388.014496,357.082153 387.962982,354.948120 386.990082,353.388977 
	C385.869476,351.593109 384.062622,349.205719 382.329620,349.004395 
	C377.288361,348.418671 372.135132,348.796631 366.579712,348.796631 
	C366.579712,351.092926 366.579712,352.888123 366.579712,354.683289 
	C366.579651,376.174500 366.550323,397.665802 366.589600,419.156921 
	C366.616699,433.977692 366.738739,448.798248 367.391235,464.290985 
M49.479870,341.971375 
	C56.561962,335.400574 64.988068,332.644287 74.575233,332.837036 
	C82.146637,332.989288 88.909683,335.383484 95.187782,339.449249 
	C101.729965,343.686035 103.597595,343.304138 108.287621,336.875000 
	C109.562531,335.127319 110.680481,333.215546 112.193237,331.701569 
	C115.059296,328.833252 114.356125,327.005676 111.385384,324.547211 
	C87.760315,304.996033 46.886456,308.324280 27.131090,331.726959 
	C12.882593,348.606049 9.627398,368.269287 13.535351,389.434052 
	C16.852345,407.398285 25.799385,421.703308 42.202896,430.519623 
	C57.331593,438.650726 73.428520,439.067810 89.804207,435.356079 
	C100.493835,432.933136 109.419884,427.559326 116.291733,418.814148 
	C115.545837,417.888916 115.054184,417.221252 114.503532,416.606415 
	C112.504967,414.374695 110.523262,412.126160 108.468338,409.947021 
	C103.767769,404.962372 102.683701,404.769653 97.332397,409.266083 
	C84.385925,420.144287 56.966309,419.896820 45.495510,401.906219 
	C34.583179,384.791443 35.900051,358.038116 49.479870,341.971375 
M889.339539,379.093567 
	C886.623169,379.908905 883.906738,380.724274 880.256226,381.820007 
	C880.256226,357.165253 880.256226,333.774017 880.256226,310.279419 
	C872.205322,310.279419 864.808105,310.279419 857.181702,310.279419 
	C857.181702,352.364624 857.181702,394.124298 857.181702,436.107361 
	C864.924194,436.107361 872.436401,436.107361 880.401978,436.107361 
	C880.401978,422.875458 880.401978,410.100189 880.401978,397.407715 
	C888.845032,396.111542 889.385559,396.342896 893.385254,402.919647 
	C899.009277,412.167328 904.466125,421.522400 910.338562,430.609131 
	C911.840881,432.933624 914.504211,435.810425 916.863647,436.036285 
	C924.214539,436.739899 931.675537,436.294250 940.114685,436.294250 
	C929.129333,419.103333 918.633118,402.677948 908.511292,386.838440 
	C918.424927,374.379883 928.284729,361.988983 938.894653,348.655426 
	C931.056396,348.655426 924.591797,348.721466 918.129456,348.631165 
	C914.109192,348.575012 911.269470,350.205872 908.878357,353.471130 
	C902.680481,361.934723 896.227051,370.211151 889.339539,379.093567 
M703.974304,426.534241 
	C719.846558,440.171051 745.430298,441.335663 761.910583,429.171661 
	C778.323425,417.057556 783.637573,388.860931 773.217285,369.178589 
	C762.842346,349.581909 736.237793,341.824432 714.493347,351.428864 
	C684.847473,364.523285 684.591125,408.925171 703.974304,426.534241 
M123.742058,409.626862 
	C133.798309,438.882721 166.067245,442.090698 185.331207,433.324585 
	C199.871246,426.708099 206.679810,414.567047 208.525009,399.134003 
	C211.150558,377.174225 201.870392,353.709473 174.799362,348.243195 
	C155.835480,344.413940 136.107468,351.936218 127.221588,367.728546 
	C119.893440,380.752411 119.559631,394.688934 123.742058,409.626862 
M540.159241,425.462463 
	C540.159241,400.035492 540.159241,374.608521 540.159241,348.990356 
	C532.089478,348.990356 524.695374,348.990356 516.766113,348.990356 
	C516.766113,351.108063 516.766113,352.892883 516.766113,354.677734 
	C516.766174,372.172028 516.792847,389.666443 516.725464,407.160492 
	C516.718689,408.915649 516.656189,411.019257 515.740601,412.361572 
	C511.922150,417.959534 501.197998,421.108398 494.410645,418.954987 
	C488.785278,417.170258 486.089203,412.256439 486.073242,403.514557 
	C486.043457,387.186615 486.065155,370.858551 486.065399,354.530548 
	C486.065430,352.759216 486.065399,350.987854 486.065399,348.950592 
	C478.011230,348.950592 470.612976,348.950592 463.037994,348.950592 
	C462.877960,349.829834 462.664978,350.455170 462.664581,351.080597 
	C462.653229,369.740692 462.542389,388.401978 462.727539,407.060303 
	C462.803589,414.723633 465.058075,421.893311 470.094025,427.843597 
	C479.358551,438.790253 497.726532,440.771637 510.696350,432.335785 
	C513.285400,430.651825 515.754272,428.783051 517.206055,427.757263 
	C519.845337,430.919281 521.682556,435.242889 524.493164,436.012756 
	C529.247437,437.315033 534.617249,436.370300 540.159241,436.370300 
	C540.159241,432.731903 540.159241,429.588745 540.159241,425.462463 
M815.938110,361.588013 
	C815.222961,359.231140 814.833862,356.701172 813.700500,354.566254 
	C812.576111,352.448059 810.898987,349.347351 809.119873,349.093811 
	C803.953552,348.357483 798.614624,348.832825 793.302734,348.832825 
	C793.302734,378.232239 793.302734,407.119476 793.302734,436.295471 
	C801.058838,436.295471 808.462769,436.295471 816.309143,436.295471 
	C816.405823,434.259827 816.561401,432.478333 816.563782,430.696686 
	C816.583435,416.039154 816.511658,401.381226 816.598816,386.724213 
	C816.648621,378.355194 823.729004,371.102417 831.994507,370.677124 
	C845.237244,369.995758 845.237244,369.995758 846.376709,356.510803 
	C846.993225,349.214813 845.561340,347.472748 838.201294,347.434662 
	C835.598938,347.421173 832.908386,347.995178 830.403870,348.771454 
	C823.975586,350.763855 820.053284,355.768829 815.938110,361.588013 
z"/>
<path fill="#EEF4F5" opacity="1.000000" stroke="none" 
	d="
M528.776855,282.127045 
	C491.311371,282.126923 454.321472,282.152191 417.331940,282.043060 
	C415.678162,282.038177 413.194977,281.266815 412.539124,280.065613 
	C410.863098,276.996063 412.864441,274.534027 416.600067,274.396027 
	C426.252502,274.039459 426.257843,274.041046 429.081207,264.808777 
	C431.262970,257.674438 433.429291,250.535355 435.789948,242.782776 
	C433.521301,242.782776 431.584900,242.782791 429.648529,242.782776 
	C392.492065,242.782761 355.335571,242.798645 318.179169,242.750870 
	C315.367249,242.747269 312.482361,242.610123 309.758728,241.982452 
	C302.940948,240.411270 298.999939,235.296265 298.998840,228.403519 
	C298.988647,164.254471 298.978333,100.105415 299.005707,35.956383 
	C299.011169,23.111498 305.202179,16.993523 317.973907,16.993313 
	C421.112244,16.991619 524.250610,16.992266 627.388916,16.992472 
	C641.823364,16.992502 647.218994,22.302402 647.234375,36.929817 
	C647.286499,86.582794 647.257202,136.235840 647.258667,185.888870 
	C647.259094,199.718414 646.832703,213.565582 647.404968,227.371399 
	C647.798279,236.859711 640.609985,242.265381 633.187073,242.692490 
	C631.359436,242.797668 629.523499,242.779053 627.691345,242.779282 
	C590.868164,242.783813 554.044922,242.782730 517.221741,242.782776 
	C515.412415,242.782776 513.603149,242.782791 511.082794,242.782791 
	C514.289062,252.994095 517.241394,262.651154 520.447693,272.223114 
	C520.776611,273.204987 522.550476,274.049591 523.786499,274.297882 
	C525.549072,274.651947 527.434448,274.414734 529.267029,274.395599 
	C531.979370,274.367249 534.770386,274.027222 534.944946,278.079559 
	C535.136230,282.521576 532.173462,282.224304 528.776855,282.127045 
M404.499969,203.109222 
	C483.904480,203.109222 563.308960,203.109222 642.897156,203.109222 
	C643.045105,201.521301 643.213257,200.557480 643.213440,199.593613 
	C643.225525,147.117233 643.272827,94.640785 643.182068,42.164570 
	C643.163452,31.387911 636.130188,24.973059 624.851013,24.971403 
	C523.896423,24.956587 422.941833,24.956827 321.987244,24.970293 
	C309.691559,24.971933 302.848114,31.847576 302.845367,44.141041 
	C302.833832,95.284698 302.840271,146.428360 302.840118,197.572021 
	C302.840118,199.324539 302.840149,201.077072 302.840149,203.109222 
	C336.901855,203.109222 370.200897,203.109222 404.499969,203.109222 
M482.030334,229.147003 
	C482.560242,224.852875 481.295532,220.962814 476.892334,220.223984 
	C474.086029,219.753098 470.111725,220.750336 468.121246,222.632996 
	C466.504364,224.162338 465.922241,228.550034 466.956207,230.646973 
	C468.109161,232.985260 471.457825,235.215759 474.120697,235.594284 
	C477.653198,236.096420 480.765228,233.853714 482.030334,229.147003 
z"/>
<path fill="#EEF4F6" opacity="1.000000" stroke="none" 
	d="
M250.030670,354.111206 
	C255.147644,351.802246 259.803314,348.744293 264.845062,347.841034 
	C276.420715,345.767212 284.239471,351.653992 289.371948,362.018402 
	C290.013214,361.497772 290.632385,361.211975 290.921478,360.728699 
	C298.093231,348.738861 317.294739,343.470551 332.516205,350.514313 
	C342.083832,354.941803 347.131317,363.402832 347.522217,373.167267 
	C348.359436,394.077759 347.778748,415.045013 347.778748,436.282227 
	C340.185150,436.282227 332.766510,436.282227 324.742584,436.282227 
	C324.742584,434.333771 324.742676,432.558533 324.742584,430.783295 
	C324.741699,413.792755 324.823181,396.801544 324.690948,379.812012 
	C324.649811,374.528534 323.638062,369.407928 318.189270,366.717377 
	C313.117401,364.212891 308.110626,364.624725 303.534363,367.835693 
	C299.048248,370.983368 297.718262,375.735840 297.717102,380.973206 
	C297.713501,397.464050 297.713959,413.954865 297.712891,430.445709 
	C297.712769,432.243866 297.712860,434.042023 297.712860,436.206268 
	C289.870514,436.206268 282.485168,436.206268 274.511414,436.206268 
	C274.511414,434.136902 274.527405,432.194427 274.508911,430.252258 
	C274.339355,412.440643 274.408813,394.621674 273.867859,376.821289 
	C273.655029,369.817902 270.077606,366.401093 264.155548,365.381775 
	C258.668213,364.437317 249.558334,368.206116 247.517914,372.509308 
	C246.920929,373.768341 247.025833,375.419952 247.023392,376.891998 
	C246.993851,394.715363 247.004471,412.538818 247.004654,430.362244 
	C247.004669,432.176270 247.004654,433.990326 247.004654,436.189972 
	C239.214355,436.189972 231.808197,436.189972 224.023743,436.189972 
	C224.023743,407.236938 224.023743,378.338074 224.023743,348.870026 
	C229.201920,348.870026 234.641754,348.058868 239.629868,349.208221 
	C242.168686,349.793182 243.895157,353.903687 246.433029,356.954498 
	C247.055191,356.463470 248.399933,355.402130 250.030670,354.111206 
z"/>
<path fill="#EEF4F6" opacity="1.000000" stroke="none" 
	d="
M561.906189,384.129700 
	C558.261902,372.340057 554.718506,360.935974 550.989807,348.935394 
	C558.146484,348.935394 564.928955,348.547241 571.611328,349.193542 
	C573.403137,349.366821 575.820190,352.455963 576.369934,354.609833 
	C580.810059,372.006958 584.870972,389.500885 589.056580,406.963104 
	C589.276367,407.879974 589.576904,408.777527 590.267761,411.159424 
	C593.800476,399.194550 596.924011,388.650330 600.025452,378.099640 
	C602.322693,370.285126 604.695618,362.490509 606.830383,354.631470 
	C607.976929,350.410675 610.563232,348.750427 614.792542,348.612732 
	C629.677002,348.128113 629.532593,348.105896 633.369873,362.327728 
	C637.441040,377.416840 641.816223,392.424011 646.078369,407.461334 
	C646.234802,408.013275 646.599487,408.506226 647.300598,409.869812 
	C649.765808,400.211273 651.982422,391.458954 654.235901,382.716187 
	C656.644409,373.372009 659.179199,364.059235 661.474487,354.687592 
	C662.515259,350.438263 664.944763,348.536255 669.272705,348.624756 
	C674.585144,348.733429 679.901611,348.650696 685.958740,348.650696 
	C683.063110,358.074860 680.339661,367.028961 677.560303,375.965668 
	C671.685547,394.855377 665.739868,413.723236 659.935852,432.634613 
	C659.091858,435.384521 657.973145,436.875305 654.784546,436.646179 
	C650.807861,436.360382 646.775452,436.328156 642.803162,436.642273 
	C638.344971,436.994812 636.113831,435.156799 634.886841,430.938660 
	C630.057373,414.335968 625.017517,397.794464 620.052124,381.231354 
	C619.644897,379.873199 619.210083,378.523285 618.493774,376.225372 
	C613.149597,393.758423 608.064514,410.267761 603.094788,426.811768 
	C600.169189,436.550903 600.251526,436.575653 590.171204,436.576813 
	C578.496826,436.578156 578.462219,436.589172 574.912537,425.432495 
	C570.576538,411.804291 566.306030,398.155273 561.906189,384.129700 
z"/>
<path fill="#EFF5F6" opacity="1.000000" stroke="none" 
	d="
M367.104797,463.954956 
	C366.738739,448.798248 366.616699,433.977692 366.589600,419.156921 
	C366.550323,397.665802 366.579651,376.174500 366.579712,354.683289 
	C366.579712,352.888123 366.579712,351.092926 366.579712,348.796631 
	C372.135132,348.796631 377.288361,348.418671 382.329620,349.004395 
	C384.062622,349.205719 385.869476,351.593109 386.990082,353.388977 
	C387.962982,354.948120 388.014496,357.082153 388.295563,358.234009 
	C394.893524,354.941101 401.035522,350.851440 407.794922,348.716278 
	C421.724518,344.316101 434.925110,350.362823 441.992920,363.260162 
	C452.016296,381.550842 450.192505,409.019379 438.394287,424.403992 
	C426.987488,439.278198 403.683014,441.318604 392.368896,431.465118 
	C392.019165,431.160492 391.469971,431.084900 390.306763,430.619934 
	C390.306763,441.921112 390.306763,452.924469 390.306763,464.290985 
	C382.218323,464.290985 374.804779,464.290985 367.104797,463.954956 
M390.015808,386.533325 
	C390.015778,394.016022 390.180359,401.503998 389.942230,408.979095 
	C389.832550,412.421692 391.193359,414.555481 393.883911,416.397736 
	C405.196472,424.143585 420.148895,418.826294 422.566833,405.059540 
	C424.138885,396.109009 423.928345,386.494995 422.571869,377.470520 
	C420.928711,366.538422 410.593628,362.042542 400.351685,366.453339 
	C391.907104,370.090118 388.465668,376.479919 390.015808,386.533325 
z"/>
<path fill="#EEF5F6" opacity="1.000000" stroke="none" 
	d="
M49.226738,342.225128 
	C35.900051,358.038116 34.583179,384.791443 45.495510,401.906219 
	C56.966309,419.896820 84.385925,420.144287 97.332397,409.266083 
	C102.683701,404.769653 103.767769,404.962372 108.468338,409.947021 
	C110.523262,412.126160 112.504967,414.374695 114.503532,416.606415 
	C115.054184,417.221252 115.545837,417.888916 116.291733,418.814148 
	C109.419884,427.559326 100.493835,432.933136 89.804207,435.356079 
	C73.428520,439.067810 57.331593,438.650726 42.202896,430.519623 
	C25.799385,421.703308 16.852345,407.398285 13.535351,389.434052 
	C9.627398,368.269287 12.882593,348.606049 27.131090,331.726959 
	C46.886456,308.324280 87.760315,304.996033 111.385384,324.547211 
	C114.356125,327.005676 115.059296,328.833252 112.193237,331.701569 
	C110.680481,333.215546 109.562531,335.127319 108.287621,336.875000 
	C103.597595,343.304138 101.729965,343.686035 95.187782,339.449249 
	C88.909683,335.383484 82.146637,332.989288 74.575233,332.837036 
	C64.988068,332.644287 56.561962,335.400574 49.226738,342.225128 
z"/>
<path fill="#EFF5F6" opacity="1.000000" stroke="none" 
	d="
M889.607544,378.827942 
	C896.227051,370.211151 902.680481,361.934723 908.878357,353.471130 
	C911.269470,350.205872 914.109192,348.575012 918.129456,348.631165 
	C924.591797,348.721466 931.056396,348.655426 938.894653,348.655426 
	C928.284729,361.988983 918.424927,374.379883 908.511292,386.838440 
	C918.633118,402.677948 929.129333,419.103333 940.114685,436.294250 
	C931.675537,436.294250 924.214539,436.739899 916.863647,436.036285 
	C914.504211,435.810425 911.840881,432.933624 910.338562,430.609131 
	C904.466125,421.522400 899.009277,412.167328 893.385254,402.919647 
	C889.385559,396.342896 888.845032,396.111542 880.401978,397.407715 
	C880.401978,410.100189 880.401978,422.875458 880.401978,436.107361 
	C872.436401,436.107361 864.924194,436.107361 857.181702,436.107361 
	C857.181702,394.124298 857.181702,352.364624 857.181702,310.279419 
	C864.808105,310.279419 872.205322,310.279419 880.256226,310.279419 
	C880.256226,333.774017 880.256226,357.165253 880.256226,381.820007 
	C883.906738,380.724274 886.623169,379.908905 889.607544,378.827942 
z"/>
<path fill="#EEF5F6" opacity="1.000000" stroke="none" 
	d="
M703.726807,426.276550 
	C684.591125,408.925171 684.847473,364.523285 714.493347,351.428864 
	C736.237793,341.824432 762.842346,349.581909 773.217285,369.178589 
	C783.637573,388.860931 778.323425,417.057556 761.910583,429.171661 
	C745.430298,441.335663 719.846558,440.171051 703.726807,426.276550 
M720.453003,413.988831 
	C730.932739,423.857941 746.996826,421.234253 751.693054,408.263641 
	C755.763184,397.022125 755.776123,385.321716 750.587402,374.208344 
	C747.498230,367.591919 741.543396,365.230042 734.558838,365.219574 
	C727.569580,365.209137 721.220215,367.535522 718.455872,374.118317 
	C712.937073,387.260071 712.549622,400.588257 720.453003,413.988831 
z"/>
<path fill="#EEF5F6" opacity="1.000000" stroke="none" 
	d="
M123.610825,409.251770 
	C119.559631,394.688934 119.893440,380.752411 127.221588,367.728546 
	C136.107468,351.936218 155.835480,344.413940 174.799362,348.243195 
	C201.870392,353.709473 211.150558,377.174225 208.525009,399.134003 
	C206.679810,414.567047 199.871246,426.708099 185.331207,433.324585 
	C166.067245,442.090698 133.798309,438.882721 123.610825,409.251770 
M161.292267,419.391388 
	C174.031586,420.641724 181.012833,415.931824 183.644638,404.138000 
	C185.561478,395.548126 185.433411,386.959625 182.989273,378.471954 
	C180.466446,369.711060 174.067841,365.082794 164.798721,365.198181 
	C155.666290,365.311798 149.254547,370.281708 146.933960,378.985840 
	C144.518677,388.045197 144.503189,397.109650 146.984711,406.134308 
	C148.898605,413.094757 153.079956,417.862091 161.292267,419.391388 
z"/>
<path fill="#EFF5F7" opacity="1.000000" stroke="none" 
	d="
M540.159241,425.954041 
	C540.159241,429.588745 540.159241,432.731903 540.159241,436.370300 
	C534.617249,436.370300 529.247437,437.315033 524.493164,436.012756 
	C521.682556,435.242889 519.845337,430.919281 517.206055,427.757263 
	C515.754272,428.783051 513.285400,430.651825 510.696350,432.335785 
	C497.726532,440.771637 479.358551,438.790253 470.094025,427.843597 
	C465.058075,421.893311 462.803589,414.723633 462.727539,407.060303 
	C462.542389,388.401978 462.653229,369.740692 462.664581,351.080597 
	C462.664978,350.455170 462.877960,349.829834 463.037994,348.950592 
	C470.612976,348.950592 478.011230,348.950592 486.065399,348.950592 
	C486.065399,350.987854 486.065430,352.759216 486.065399,354.530548 
	C486.065155,370.858551 486.043457,387.186615 486.073242,403.514557 
	C486.089203,412.256439 488.785278,417.170258 494.410645,418.954987 
	C501.197998,421.108398 511.922150,417.959534 515.740601,412.361572 
	C516.656189,411.019257 516.718689,408.915649 516.725464,407.160492 
	C516.792847,389.666443 516.766174,372.172028 516.766113,354.677734 
	C516.766113,352.892883 516.766113,351.108063 516.766113,348.990356 
	C524.695374,348.990356 532.089478,348.990356 540.159241,348.990356 
	C540.159241,374.608521 540.159241,400.035492 540.159241,425.954041 
z"/>
<path fill="#ECF3F5" opacity="1.000000" stroke="none" 
	d="
M816.180115,361.311737 
	C820.053284,355.768829 823.975586,350.763855 830.403870,348.771454 
	C832.908386,347.995178 835.598938,347.421173 838.201294,347.434662 
	C845.561340,347.472748 846.993225,349.214813 846.376709,356.510803 
	C845.237244,369.995758 845.237244,369.995758 831.994507,370.677124 
	C823.729004,371.102417 816.648621,378.355194 816.598816,386.724213 
	C816.511658,401.381226 816.583435,416.039154 816.563782,430.696686 
	C816.561401,432.478333 816.405823,434.259827 816.309143,436.295471 
	C808.462769,436.295471 801.058838,436.295471 793.302734,436.295471 
	C793.302734,407.119476 793.302734,378.232239 793.302734,348.832825 
	C798.614624,348.832825 803.953552,348.357483 809.119873,349.093811 
	C810.898987,349.347351 812.576111,352.448059 813.700500,354.566254 
	C814.833862,356.701172 815.222961,359.231140 816.180115,361.311737 
z"/>
<path fill="#31546A" opacity="1.000000" stroke="none" 
	d="
M403.999939,203.109222 
	C370.200897,203.109222 336.901855,203.109222 302.840149,203.109222 
	C302.840149,201.077072 302.840118,199.324539 302.840118,197.572021 
	C302.840271,146.428360 302.833832,95.284698 302.845367,44.141041 
	C302.848114,31.847576 309.691559,24.971933 321.987244,24.970293 
	C422.941833,24.956827 523.896423,24.956587 624.851013,24.971403 
	C636.130188,24.973059 643.163452,31.387911 643.182068,42.164570 
	C643.272827,94.640785 643.225525,147.117233 643.213440,199.593613 
	C643.213257,200.557480 643.045105,201.521301 642.897156,203.109222 
	C563.308960,203.109222 483.904480,203.109222 403.999939,203.109222 
z"/>
<path fill="#385A6F" opacity="1.000000" stroke="none" 
	d="
M481.975800,229.549713 
	C480.765228,233.853714 477.653198,236.096420 474.120697,235.594284 
	C471.457825,235.215759 468.109161,232.985260 466.956207,230.646973 
	C465.922241,228.550034 466.504364,224.162338 468.121246,222.632996 
	C470.111725,220.750336 474.086029,219.753098 476.892334,220.223984 
	C481.295532,220.962814 482.560242,224.852875 481.975800,229.549713 
z"/>
<path fill="#34576C" opacity="1.000000" stroke="none" 
	d="
M390.015808,386.041168 
	C388.465668,376.479919 391.907104,370.090118 400.351685,366.453339 
	C410.593628,362.042542 420.928711,366.538422 422.571869,377.470520 
	C423.928345,386.494995 424.138885,396.109009 422.566833,405.059540 
	C420.148895,418.826294 405.196472,424.143585 393.883911,416.397736 
	C391.193359,414.555481 389.832550,412.421692 389.942230,408.979095 
	C390.180359,401.503998 390.015778,394.016022 390.015808,386.041168 
z"/>
<path fill="#33566C" opacity="1.000000" stroke="none" 
	d="
M720.221863,413.700867 
	C712.549622,400.588257 712.937073,387.260071 718.455872,374.118317 
	C721.220215,367.535522 727.569580,365.209137 734.558838,365.219574 
	C741.543396,365.230042 747.498230,367.591919 750.587402,374.208344 
	C755.776123,385.321716 755.763184,397.022125 751.693054,408.263641 
	C746.996826,421.234253 730.932739,423.857941 720.221863,413.700867 
z"/>
<path fill="#34576C" opacity="1.000000" stroke="none" 
	d="
M160.887375,419.315521 
	C153.079956,417.862091 148.898605,413.094757 146.984711,406.134308 
	C144.503189,397.109650 144.518677,388.045197 146.933960,378.985840 
	C149.254547,370.281708 155.666290,365.311798 164.798721,365.198181 
	C174.067841,365.082794 180.466446,369.711060 182.989273,378.471954 
	C185.433411,386.959625 185.561478,395.548126 183.644638,404.138000 
	C181.012833,415.931824 174.031586,420.641724 160.887375,419.315521 
z"/>
</svg>