<svg version="1.1" id="Layer_1" xmlns="http://www.w3.org/2000/svg" xmlns:xlink="http://www.w3.org/1999/xlink" x="0px" y="0px"
	 width="100%" viewBox="0 0 990 490" enableBackground="new 0 0 990 490" xml:space="preserve">
<path fill="#000000" opacity="1.000000" stroke="none" 
	d="
M664.000000,491.000000 
	C442.666656,491.000000 221.833328,491.000000 1.000000,491.000000 
	C1.000000,327.666656 1.000000,164.333328 1.000000,1.000000 
	C331.000000,1.000000 661.000000,1.000000 991.000000,1.000000 
	C991.000000,164.333328 991.000000,327.666656 991.000000,491.000000 
	C882.166687,491.000000 773.333313,491.000000 664.000000,491.000000 
M828.954285,397.222656 
	C829.233948,390.851929 834.569641,384.757355 840.711853,384.014313 
	C845.730957,383.407166 850.775879,383.013824 856.676514,382.441589 
	C857.421997,376.998840 858.023010,371.224945 859.055298,365.529266 
	C859.826538,361.274567 857.041199,359.579834 854.092896,359.230469 
	C850.076538,358.754578 845.795288,358.956604 841.843079,359.836060 
	C834.713989,361.422455 830.086731,366.570740 826.002686,373.518280 
	C826.002686,370.408478 826.578430,368.077850 825.857788,366.261658 
	C824.944519,363.960022 823.170105,360.510284 821.430420,360.296600 
	C815.424194,359.558929 809.271667,360.012573 803.287964,360.012573 
	C803.287964,389.992432 803.287964,419.399414 803.287964,449.000031 
	C810.888306,449.000031 818.203552,449.085541 825.512451,448.909973 
	C826.638245,448.882904 827.735229,447.655518 828.988220,446.058197 
	C828.924622,430.049225 828.861023,414.040253 828.954285,397.222656 
M472.070740,420.553314 
	C472.369202,420.740448 472.667633,420.927551 472.993256,421.922943 
	C473.331848,423.477448 473.665985,425.032959 474.009705,426.586334 
	C477.198669,440.997681 487.428528,450.494934 503.560211,450.174500 
	C513.146423,449.984070 521.037903,446.718414 527.236267,441.554993 
	C530.261414,444.267639 532.563843,447.874023 535.619080,448.701996 
	C539.948425,449.875153 544.836670,449.096283 549.476685,448.915070 
	C550.352234,448.880859 551.184570,447.741699 552.552673,446.948639 
	C552.650391,446.639923 552.748108,446.331238 553.006104,445.094513 
	C552.952637,417.391541 552.899170,389.688538 552.932922,361.452454 
	C552.636780,361.271576 552.340698,361.090668 551.605713,360.153290 
	C543.507446,360.153290 535.409180,360.153290 526.998962,360.153290 
	C526.998962,379.729980 527.004333,399.004120 526.988281,418.278259 
	C526.987061,419.754639 527.238647,421.409668 526.678894,422.674591 
	C524.799133,426.922913 512.833740,432.043610 507.865936,430.956848 
	C501.687317,429.605194 498.006897,424.201141 498.003113,416.418945 
	C497.994720,399.106049 498.006287,381.793182 497.991333,364.480286 
	C497.990112,363.046631 497.850220,361.613068 497.765350,360.000763 
	C490.126465,360.000763 482.820312,359.913849 475.520660,360.092133 
	C474.394806,360.119659 473.298706,361.365112 472.024536,362.506653 
	C472.024536,362.506653 472.154175,362.976990 471.993988,363.905090 
	C472.047424,382.608215 472.100830,401.311310 472.070740,420.553314 
M376.070587,475.553314 
	C376.369019,475.740540 376.667450,475.927765 377.403046,476.870483 
	C385.501251,476.870483 393.599487,476.870483 402.253174,476.870483 
	C402.253174,465.712372 402.253174,454.898621 402.253174,442.835754 
	C408.754486,449.629150 415.971832,450.227997 423.649475,450.085938 
	C435.729462,449.862305 445.132050,444.741608 451.445038,434.813416 
	C455.056335,429.134094 457.635101,422.643280 459.726013,416.208252 
	C461.053223,412.123779 461.306335,407.397186 460.839142,403.088898 
	C460.062622,395.928040 458.894501,388.701538 456.851013,381.811188 
	C453.675201,371.102753 447.201477,362.886597 435.767120,360.043213 
	C422.309113,356.696625 410.480377,359.948883 400.596588,369.839111 
	C398.367554,365.830292 399.326782,359.451721 392.072968,359.962677 
	C387.150513,360.309418 382.201874,360.280518 377.268311,360.495972 
	C377.146606,360.501282 377.064056,361.403870 376.447296,362.051392 
	C376.349579,362.360077 376.251892,362.668762 375.994019,363.905457 
	C376.047394,400.941772 376.100769,437.978088 376.070587,475.553314 
M309.987518,446.057709 
	C309.939941,428.047241 309.892365,410.036804 309.995361,391.201813 
	C309.788635,387.011139 311.292480,383.660004 314.549042,380.922363 
	C320.314087,376.075928 330.228699,377.212036 333.280273,384.007996 
	C334.681244,387.128052 334.870422,390.961975 334.929382,394.483612 
	C335.121887,405.978210 335.001526,417.478027 335.001526,428.975861 
	C335.001526,435.575775 335.001526,442.175720 335.001526,448.717407 
	C343.624390,448.717407 351.696655,448.717407 359.998810,448.717407 
	C359.998810,439.961731 360.351746,431.468933 359.920502,423.016174 
	C359.174103,408.386292 361.916870,393.671875 358.118164,379.083496 
	C355.838623,370.329315 350.907288,363.752258 342.767120,361.224854 
	C326.931091,356.308044 311.956299,357.525848 300.754852,372.263092 
	C296.071350,364.055420 289.922577,359.225403 280.115051,358.810974 
	C270.599945,358.408905 263.423157,362.599487 257.852020,367.383240 
	C255.279663,364.564240 253.476212,360.751923 251.056610,360.309509 
	C245.627686,359.316864 239.892639,359.998566 234.238892,359.998566 
	C234.238892,389.881012 234.238892,419.283478 234.238892,448.767426 
	C242.551620,448.767426 250.623672,448.767426 259.001068,448.767426 
	C259.001068,429.574799 259.396973,410.600800 258.780212,391.659760 
	C258.572327,385.275452 261.406982,382.003754 266.070496,379.539917 
	C271.926941,376.445862 281.854034,377.150024 283.893555,386.881622 
	C284.625885,390.376068 284.927094,394.016632 284.952332,397.593872 
	C285.062805,413.256775 284.993713,428.920929 285.010315,444.584625 
	C285.011810,446.012939 285.159424,447.441132 285.246521,449.000183 
	C292.795166,449.000183 299.949005,449.073242 307.097565,448.910828 
	C308.027588,448.889709 308.929993,447.654907 309.987518,446.057709 
M569.500000,28.999977 
	C487.348602,28.999973 405.197235,28.999723 323.045837,29.000347 
	C314.965332,29.000408 310.000488,33.989609 310.000427,42.107544 
	C309.999878,108.595268 310.000031,175.082993 310.000092,241.570724 
	C310.000092,249.816299 315.291687,254.997314 323.739502,254.998123 
	C362.399048,255.001770 401.058563,254.999634 439.718109,254.999603 
	C441.444122,254.999603 443.170166,254.999634 445.174774,254.999634 
	C442.971344,262.146271 441.051544,268.579895 439.002106,274.971985 
	C435.900299,284.646576 435.863434,284.828522 426.076447,284.902496 
	C422.066498,284.932861 421.901276,286.955139 421.952759,289.946228 
	C422.001984,292.806458 421.843994,295.080719 425.979370,295.068237 
	C464.638550,294.951599 503.298279,294.965485 541.957642,295.051453 
	C545.800598,295.059998 546.944336,292.774536 546.888672,289.851440 
	C546.832031,286.876617 545.469421,284.601929 541.673645,284.939301 
	C538.551697,285.216827 535.385437,284.995941 532.342163,284.995941 
	C529.301941,274.834442 526.362000,265.008057 523.367615,254.999634 
	C524.916138,254.999634 526.397705,254.999619 527.879333,254.999619 
	C566.705505,254.999619 605.531616,255.002945 644.357788,254.997040 
	C652.986755,254.995728 658.999878,248.932220 658.999939,240.270737 
	C659.000000,194.112595 659.000000,147.954453 659.000000,101.796303 
	C659.000000,82.799812 659.037659,63.803211 658.984131,44.806870 
	C658.956482,34.989594 653.005188,29.000185 643.486511,29.000116 
	C619.157654,28.999943 594.828857,29.000008 569.500000,28.999977 
M661.001282,407.531433 
	C660.326355,410.441833 659.651489,413.352234 658.976562,416.262634 
	C658.386047,416.198486 657.795471,416.134338 657.204956,416.070160 
	C655.149536,408.744781 653.058289,401.429199 651.049622,394.090973 
	C649.316162,387.757965 647.851013,381.346008 645.935059,375.070343 
	C644.643982,370.841492 643.317383,366.448792 641.002319,362.759644 
	C638.955505,359.497833 623.085815,358.637787 619.959595,361.040619 
	C619.127869,361.679901 618.389160,362.711639 618.075256,363.710144 
	C615.645569,371.437683 613.295288,379.190826 610.988770,386.956329 
	C607.854248,397.509735 604.780334,408.081116 601.317566,419.880981 
	C601.153381,417.676788 601.214172,416.726929 600.997498,415.845245 
	C596.939514,399.330933 593.003174,382.783783 588.652161,366.346527 
	C587.605225,362.391388 585.330200,359.121124 579.832031,359.861694 
	C574.923462,360.522797 569.854980,359.958099 564.858398,360.031158 
	C563.643433,360.048920 562.434082,360.446899 560.686584,360.768646 
	C564.225647,371.139160 567.716675,380.875153 570.865967,390.720428 
	C574.956909,403.509369 578.839844,416.366272 582.676941,429.234283 
	C583.993347,433.649078 584.481812,438.351379 586.159241,442.602417 
	C587.130432,445.063904 589.466309,448.337677 591.625732,448.710388 
	C596.802246,449.603851 602.239319,449.084747 607.567444,448.965546 
	C610.540649,448.899078 612.643066,447.787811 613.377014,444.351105 
	C614.209534,440.452393 615.827026,436.727753 616.966309,432.886841 
	C619.789490,423.369080 622.507690,413.820160 625.323242,404.300140 
	C626.603516,399.971161 628.014587,395.680847 629.466797,391.052948 
	C631.060242,396.035278 632.579956,400.580688 633.968079,405.165955 
	C638.002563,418.492950 642.066040,431.812347 645.923645,445.190826 
	C646.783142,448.171600 648.414490,449.085114 651.259277,449.028900 
	C656.421448,448.926880 661.612732,449.291595 666.737305,448.840729 
	C668.514893,448.684326 670.916931,447.055786 671.665283,445.458496 
	C673.530579,441.477264 674.737488,437.165161 675.980286,432.919067 
	C679.392822,421.260193 682.509644,409.512177 686.078369,397.902374 
	C689.857300,385.608734 694.021790,373.433594 698.411926,360.000824 
	C692.998413,360.000824 688.448975,360.000885 683.899536,360.000854 
	C673.491211,360.000732 672.428040,360.810913 670.071350,370.762207 
	C669.736206,372.177307 669.775818,373.684753 669.407410,375.087799 
	C666.641235,385.621094 663.816223,396.138947 661.001282,407.531433 
M22.034197,379.907074 
	C21.684490,396.213196 23.831074,411.793640 33.209343,425.864746 
	C38.354195,433.584045 45.218315,439.607544 52.904247,443.662842 
	C66.969307,451.083923 82.569168,451.719574 98.121056,448.940125 
	C110.222565,446.777344 120.287651,440.845062 128.543869,430.703278 
	C125.110435,427.056244 121.539047,423.666107 118.456978,419.877808 
	C115.236809,415.919830 112.358521,416.479279 108.963776,419.477081 
	C99.093788,428.192871 87.290878,429.661133 75.274323,426.494812 
	C63.064438,423.277557 55.100712,414.392792 52.238956,402.249725 
	C50.570614,395.170563 51.439423,387.510315 50.990925,380.122162 
	C50.530735,372.541382 52.895042,365.839233 57.055462,359.698944 
	C63.603310,350.035187 73.307297,345.378723 84.470787,345.261719 
	C92.235382,345.180328 99.982666,347.589783 106.381241,352.834290 
	C110.375290,356.108002 114.025162,355.818604 117.521004,351.912964 
	C120.020073,349.120972 121.985573,345.847473 124.515953,343.088562 
	C126.955788,340.428375 126.567352,338.028595 123.874596,336.492279 
	C116.793716,332.452209 109.869148,327.440582 102.189934,325.300995 
	C88.786072,321.566376 75.158157,321.663818 61.575466,326.807404 
	C50.177135,331.123810 41.248207,337.951660 33.932529,347.416382 
	C26.705927,356.765869 24.010767,367.698761 22.034197,379.907074 
M948.005493,441.505951 
	C938.790894,427.074249 929.576233,412.642548 920.821106,398.930420 
	C930.879150,386.168762 940.777954,373.609070 951.503723,360.000092 
	C942.306763,360.000092 934.953064,359.608459 927.677917,360.194000 
	C924.792419,360.426239 921.267883,362.153961 919.439270,364.363525 
	C913.246094,371.846558 907.420349,379.673737 901.989136,387.730042 
	C899.350525,391.643982 896.383179,392.528687 891.859985,391.649384 
	C891.859985,368.057281 891.859985,344.646118 891.859985,321.002167 
	C884.999695,321.002167 878.518555,321.202240 872.057617,320.927826 
	C868.124512,320.760742 866.890930,322.006287 866.916748,326.026215 
	C867.085144,352.185760 867.003479,378.346924 867.003540,404.507538 
	C867.003601,417.837799 866.922485,431.169220 867.115234,444.496704 
	C867.137024,446.004883 868.640625,448.744995 869.558411,448.788757 
	C876.969116,449.142303 884.404053,448.986969 892.162476,448.986969 
	C892.162476,435.293182 892.162476,422.188446 892.162476,407.703064 
	C895.802979,409.360168 899.780334,409.872162 901.251343,412.065277 
	C907.575012,421.493103 912.957275,431.547913 919.138977,441.078186 
	C921.066101,444.049225 922.220642,448.704468 926.686584,448.894806 
	C935.059265,449.251709 943.457886,448.997589 952.605469,448.997589 
	C950.938477,446.126831 949.748474,444.077606 948.005493,441.505951 
M724.545959,362.932678 
	C713.688843,367.686127 706.446106,376.243713 703.257507,387.120636 
	C699.327698,400.525726 699.134033,414.123810 705.838989,427.377686 
	C710.563782,436.717316 717.512634,442.851410 726.781189,447.058990 
	C734.091492,450.377563 741.751770,449.985870 749.433228,450.015137 
	C760.110168,450.055817 769.372375,445.993256 777.123901,439.183472 
	C785.060364,432.211182 788.866943,422.437592 789.771362,412.229004 
	C790.539490,403.557892 790.633911,394.777832 787.250244,386.045593 
	C782.794189,374.545746 775.782104,366.253113 764.236694,362.015350 
	C751.182861,357.223877 738.106018,357.961212 724.545959,362.932678 
M131.999664,413.257080 
	C132.335159,414.993378 132.556839,416.761047 133.025131,418.460754 
	C135.550674,427.627686 139.904739,435.518005 147.761398,441.396118 
	C160.681473,451.062561 175.108124,452.119019 189.922043,448.407013 
	C204.718643,444.699371 214.670105,434.989227 218.898346,420.171600 
	C221.476990,411.134918 222.013489,401.759308 219.937027,392.545624 
	C217.026459,379.630737 209.992126,369.711975 197.979416,363.370605 
	C189.783493,359.044098 181.138306,359.004486 172.302994,358.957123 
	C155.336685,358.866180 139.299957,370.301025 133.961212,387.032288 
	C131.313675,395.329529 131.372971,403.815033 131.999664,413.257080 
z"/>
<path fill="#F1F7F8" opacity="1.000000" stroke="none" 
	d="
M570.000000,28.999977 
	C594.828857,29.000008 619.157654,28.999943 643.486511,29.000116 
	C653.005188,29.000185 658.956482,34.989594 658.984131,44.806870 
	C659.037659,63.803211 659.000000,82.799812 659.000000,101.796303 
	C659.000000,147.954453 659.000000,194.112595 658.999939,240.270737 
	C658.999878,248.932220 652.986755,254.995728 644.357788,254.997040 
	C605.531616,255.002945 566.705505,254.999619 527.879333,254.999619 
	C526.397705,254.999619 524.916138,254.999634 523.367615,254.999634 
	C526.362000,265.008057 529.301941,274.834442 532.342163,284.995941 
	C535.385437,284.995941 538.551697,285.216827 541.673645,284.939301 
	C545.469421,284.601929 546.832031,286.876617 546.888672,289.851440 
	C546.944336,292.774536 545.800598,295.059998 541.957642,295.051453 
	C503.298279,294.965485 464.638550,294.951599 425.979370,295.068237 
	C421.843994,295.080719 422.001984,292.806458 421.952759,289.946228 
	C421.901276,286.955139 422.066498,284.932861 426.076447,284.902496 
	C435.863434,284.828522 435.900299,284.646576 439.002106,274.971985 
	C441.051544,268.579895 442.971344,262.146271 445.174774,254.999634 
	C443.170166,254.999634 441.444122,254.999603 439.718109,254.999603 
	C401.058563,254.999634 362.399048,255.001770 323.739502,254.998123 
	C315.291687,254.997314 310.000092,249.816299 310.000092,241.570724 
	C310.000031,175.082993 309.999878,108.595268 310.000427,42.107544 
	C310.000488,33.989609 314.965332,29.000408 323.045837,29.000347 
	C405.197235,28.999723 487.348602,28.999973 570.000000,28.999977 
M313.999878,98.500000 
	C313.999878,136.916611 313.999878,175.333206 313.999878,213.774292 
	C427.249268,213.774292 539.951294,213.774292 653.000000,213.774292 
	C653.000000,212.755127 653.000000,211.960678 653.000000,211.166245 
	C653.000000,158.356445 653.050476,105.546524 652.925903,52.737026 
	C652.912720,47.136948 650.343750,42.263702 644.871948,40.108646 
	C640.905457,38.546444 636.564026,37.284180 632.346191,37.137135 
	C620.865295,36.736877 609.361267,36.999615 597.866394,36.999615 
	C510.571960,36.999615 423.277496,36.969563 335.983154,37.052361 
	C328.381012,37.059570 320.829865,38.502419 316.828766,45.927395 
	C315.003174,49.315243 314.216431,53.609581 314.122406,57.520763 
	C313.802155,70.840462 313.999878,84.172607 313.999878,98.500000 
M479.493073,234.066605 
	C478.997467,235.234619 478.212616,236.366272 478.060364,237.577454 
	C477.599823,241.241119 478.483429,244.575241 482.424622,245.674225 
	C485.609283,246.562271 488.941864,246.444748 490.980408,243.022308 
	C493.057251,239.535522 492.164124,236.373627 489.326569,233.936737 
	C486.488586,231.499512 483.296265,230.785049 479.493073,234.066605 
z"/>
<path fill="#F1F7F8" opacity="1.000000" stroke="none" 
	d="
M309.845215,446.982239 
	C308.929993,447.654907 308.027588,448.889709 307.097565,448.910828 
	C299.949005,449.073242 292.795166,449.000183 285.246521,449.000183 
	C285.159424,447.441132 285.011810,446.012939 285.010315,444.584625 
	C284.993713,428.920929 285.062805,413.256775 284.952332,397.593872 
	C284.927094,394.016632 284.625885,390.376068 283.893555,386.881622 
	C281.854034,377.150024 271.926941,376.445862 266.070496,379.539917 
	C261.406982,382.003754 258.572327,385.275452 258.780212,391.659760 
	C259.396973,410.600800 259.001068,429.574799 259.001068,448.767426 
	C250.623672,448.767426 242.551620,448.767426 234.238892,448.767426 
	C234.238892,419.283478 234.238892,389.881012 234.238892,359.998566 
	C239.892639,359.998566 245.627686,359.316864 251.056610,360.309509 
	C253.476212,360.751923 255.279663,364.564240 257.852020,367.383240 
	C263.423157,362.599487 270.599945,358.408905 280.115051,358.810974 
	C289.922577,359.225403 296.071350,364.055420 300.754852,372.263092 
	C311.956299,357.525848 326.931091,356.308044 342.767120,361.224854 
	C350.907288,363.752258 355.838623,370.329315 358.118164,379.083496 
	C361.916870,393.671875 359.174103,408.386292 359.920502,423.016174 
	C360.351746,431.468933 359.998810,439.961731 359.998810,448.717407 
	C351.696655,448.717407 343.624390,448.717407 335.001526,448.717407 
	C335.001526,442.175720 335.001526,435.575775 335.001526,428.975861 
	C335.001526,417.478027 335.121887,405.978210 334.929382,394.483612 
	C334.870422,390.961975 334.681244,387.128052 333.280273,384.007996 
	C330.228699,377.212036 320.314087,376.075928 314.549042,380.922363 
	C311.292480,383.660004 309.788635,387.011139 309.657043,391.931427 
	C309.226807,410.182739 309.127075,427.704376 309.077148,445.226196 
	C309.075470,445.810791 309.577789,446.396851 309.845215,446.982239 
z"/>
<path fill="#F1F7F8" opacity="1.000000" stroke="none" 
	d="
M661.005432,407.096527 
	C663.816223,396.138947 666.641235,385.621094 669.407410,375.087799 
	C669.775818,373.684753 669.736206,372.177307 670.071350,370.762207 
	C672.428040,360.810913 673.491211,360.000732 683.899536,360.000854 
	C688.448975,360.000885 692.998413,360.000824 698.411926,360.000824 
	C694.021790,373.433594 689.857300,385.608734 686.078369,397.902374 
	C682.509644,409.512177 679.392822,421.260193 675.980286,432.919067 
	C674.737488,437.165161 673.530579,441.477264 671.665283,445.458496 
	C670.916931,447.055786 668.514893,448.684326 666.737305,448.840729 
	C661.612732,449.291595 656.421448,448.926880 651.259277,449.028900 
	C648.414490,449.085114 646.783142,448.171600 645.923645,445.190826 
	C642.066040,431.812347 638.002563,418.492950 633.968079,405.165955 
	C632.579956,400.580688 631.060242,396.035278 629.466797,391.052948 
	C628.014587,395.680847 626.603516,399.971161 625.323242,404.300140 
	C622.507690,413.820160 619.789490,423.369080 616.966309,432.886841 
	C615.827026,436.727753 614.209534,440.452393 613.377014,444.351105 
	C612.643066,447.787811 610.540649,448.899078 607.567444,448.965546 
	C602.239319,449.084747 596.802246,449.603851 591.625732,448.710388 
	C589.466309,448.337677 587.130432,445.063904 586.159241,442.602417 
	C584.481812,438.351379 583.993347,433.649078 582.676941,429.234283 
	C578.839844,416.366272 574.956909,403.509369 570.865967,390.720428 
	C567.716675,380.875153 564.225647,371.139160 560.686584,360.768646 
	C562.434082,360.446899 563.643433,360.048920 564.858398,360.031158 
	C569.854980,359.958099 574.923462,360.522797 579.832031,359.861694 
	C585.330200,359.121124 587.605225,362.391388 588.652161,366.346527 
	C593.003174,382.783783 596.939514,399.330933 600.997498,415.845245 
	C601.214172,416.726929 601.153381,417.676788 601.317566,419.880981 
	C604.780334,408.081116 607.854248,397.509735 610.988770,386.956329 
	C613.295288,379.190826 615.645569,371.437683 618.075256,363.710144 
	C618.389160,362.711639 619.127869,361.679901 619.959595,361.040619 
	C623.085815,358.637787 638.955505,359.497833 641.002319,362.759644 
	C643.317383,366.448792 644.643982,370.841492 645.935059,375.070343 
	C647.851013,381.346008 649.316162,387.757965 651.049622,394.090973 
	C653.058289,401.429199 655.149536,408.744781 657.204956,416.070160 
	C657.795471,416.134338 658.386047,416.198486 658.976562,416.262634 
	C659.651489,413.352234 660.326355,410.441833 661.005432,407.096527 
z"/>
<path fill="#F1F7F8" opacity="1.000000" stroke="none" 
	d="
M376.963257,361.887939 
	C377.064056,361.403870 377.146606,360.501282 377.268311,360.495972 
	C382.201874,360.280518 387.150513,360.309418 392.072968,359.962677 
	C399.326782,359.451721 398.367554,365.830292 400.596588,369.839111 
	C410.480377,359.948883 422.309113,356.696625 435.767120,360.043213 
	C447.201477,362.886597 453.675201,371.102753 456.851013,381.811188 
	C458.894501,388.701538 460.062622,395.928040 460.839142,403.088898 
	C461.306335,407.397186 461.053223,412.123779 459.726013,416.208252 
	C457.635101,422.643280 455.056335,429.134094 451.445038,434.813416 
	C445.132050,444.741608 435.729462,449.862305 423.649475,450.085938 
	C415.971832,450.227997 408.754486,449.629150 402.253174,442.835754 
	C402.253174,454.898621 402.253174,465.712372 402.253174,476.870483 
	C393.599487,476.870483 385.501251,476.870483 377.101898,476.272766 
	C376.663330,475.378387 376.447815,475.158142 376.154175,475.014404 
	C376.100769,437.978088 376.047394,400.941772 376.265686,363.308105 
	C376.747742,362.471924 376.889679,362.197662 376.963257,361.887939 
M402.778076,425.183716 
	C403.942749,426.035278 405.058472,426.965424 406.279785,427.726105 
	C417.831116,434.920898 431.406403,429.490875 432.860535,415.089478 
	C433.639801,407.371887 433.529022,399.465210 432.867767,391.725159 
	C431.930603,380.755920 425.324921,376.799927 415.386566,378.060883 
	C409.000610,378.871155 402.030731,385.363708 402.021423,390.226135 
	C401.999451,401.691162 402.091003,413.156372 402.778076,425.183716 
z"/>
<path fill="#F1F7F8" opacity="1.000000" stroke="none" 
	d="
M22.217308,379.483307 
	C24.010767,367.698761 26.705927,356.765869 33.932529,347.416382 
	C41.248207,337.951660 50.177135,331.123810 61.575466,326.807404 
	C75.158157,321.663818 88.786072,321.566376 102.189934,325.300995 
	C109.869148,327.440582 116.793716,332.452209 123.874596,336.492279 
	C126.567352,338.028595 126.955788,340.428375 124.515953,343.088562 
	C121.985573,345.847473 120.020073,349.120972 117.521004,351.912964 
	C114.025162,355.818604 110.375290,356.108002 106.381241,352.834290 
	C99.982666,347.589783 92.235382,345.180328 84.470787,345.261719 
	C73.307297,345.378723 63.603310,350.035187 57.055462,359.698944 
	C52.895042,365.839233 50.530735,372.541382 50.990925,380.122162 
	C51.439423,387.510315 50.570614,395.170563 52.238956,402.249725 
	C55.100712,414.392792 63.064438,423.277557 75.274323,426.494812 
	C87.290878,429.661133 99.093788,428.192871 108.963776,419.477081 
	C112.358521,416.479279 115.236809,415.919830 118.456978,419.877808 
	C121.539047,423.666107 125.110435,427.056244 128.543869,430.703278 
	C120.287651,440.845062 110.222565,446.777344 98.121056,448.940125 
	C82.569168,451.719574 66.969307,451.083923 52.904247,443.662842 
	C45.218315,439.607544 38.354195,433.584045 33.209343,425.864746 
	C23.831074,411.793640 21.684490,396.213196 22.217308,379.483307 
z"/>
<path fill="#F1F7F8" opacity="1.000000" stroke="none" 
	d="
M948.281982,441.767151 
	C949.748474,444.077606 950.938477,446.126831 952.605469,448.997589 
	C943.457886,448.997589 935.059265,449.251709 926.686584,448.894806 
	C922.220642,448.704468 921.066101,444.049225 919.138977,441.078186 
	C912.957275,431.547913 907.575012,421.493103 901.251343,412.065277 
	C899.780334,409.872162 895.802979,409.360168 892.162476,407.703064 
	C892.162476,422.188446 892.162476,435.293182 892.162476,448.986969 
	C884.404053,448.986969 876.969116,449.142303 869.558411,448.788757 
	C868.640625,448.744995 867.137024,446.004883 867.115234,444.496704 
	C866.922485,431.169220 867.003601,417.837799 867.003540,404.507538 
	C867.003479,378.346924 867.085144,352.185760 866.916748,326.026215 
	C866.890930,322.006287 868.124512,320.760742 872.057617,320.927826 
	C878.518555,321.202240 884.999695,321.002167 891.859985,321.002167 
	C891.859985,344.646118 891.859985,368.057281 891.859985,391.649384 
	C896.383179,392.528687 899.350525,391.643982 901.989136,387.730042 
	C907.420349,379.673737 913.246094,371.846558 919.439270,364.363525 
	C921.267883,362.153961 924.792419,360.426239 927.677917,360.194000 
	C934.953064,359.608459 942.306763,360.000092 951.503723,360.000092 
	C940.777954,373.609070 930.879150,386.168762 920.821106,398.930420 
	C929.576233,412.642548 938.790894,427.074249 948.281982,441.767151 
z"/>
<path fill="#F1F7F8" opacity="1.000000" stroke="none" 
	d="
M724.820923,362.644348 
	C738.106018,357.961212 751.182861,357.223877 764.236694,362.015350 
	C775.782104,366.253113 782.794189,374.545746 787.250244,386.045593 
	C790.633911,394.777832 790.539490,403.557892 789.771362,412.229004 
	C788.866943,422.437592 785.060364,432.211182 777.123901,439.183472 
	C769.372375,445.993256 760.110168,450.055817 749.433228,450.015137 
	C741.751770,449.985870 734.091492,450.377563 726.781189,447.058990 
	C717.512634,442.851410 710.563782,436.717316 705.838989,427.377686 
	C699.134033,414.123810 699.327698,400.525726 703.257507,387.120636 
	C706.446106,376.243713 713.688843,367.686127 724.820923,362.644348 
M757.408508,427.061737 
	C758.379578,425.775146 759.532593,424.587189 760.291992,423.185883 
	C765.136353,414.247162 765.433350,404.593750 763.331116,395.065552 
	C762.272705,390.268646 760.201050,384.641083 756.667419,381.682465 
	C750.827637,376.792999 743.273315,376.428650 736.174988,380.354065 
	C729.835754,383.859619 727.938171,390.137634 727.133118,396.567139 
	C726.476379,401.811859 726.435669,407.281860 727.155212,412.509766 
	C727.900635,417.926086 728.975586,423.343842 734.198853,427.120300 
	C741.877563,432.671967 749.241760,431.462463 757.408508,427.061737 
z"/>
<path fill="#F1F7F8" opacity="1.000000" stroke="none" 
	d="
M552.036865,447.112427 
	C551.184570,447.741699 550.352234,448.880859 549.476685,448.915070 
	C544.836670,449.096283 539.948425,449.875153 535.619080,448.701996 
	C532.563843,447.874023 530.261414,444.267639 527.236267,441.554993 
	C521.037903,446.718414 513.146423,449.984070 503.560211,450.174500 
	C487.428528,450.494934 477.198669,440.997681 474.009705,426.586334 
	C473.665985,425.032959 473.331848,423.477448 472.897034,421.298950 
	C472.663391,420.378326 472.447876,420.158173 472.154266,420.014435 
	C472.100830,401.311310 472.047424,382.608215 472.213287,363.355316 
	C472.636505,362.488190 472.555267,362.235443 472.188843,362.047302 
	C473.298706,361.365112 474.394806,360.119659 475.520660,360.092133 
	C482.820312,359.913849 490.126465,360.000763 497.765350,360.000763 
	C497.850220,361.613068 497.990112,363.046631 497.991333,364.480286 
	C498.006287,381.793182 497.994720,399.106049 498.003113,416.418945 
	C498.006897,424.201141 501.687317,429.605194 507.865936,430.956848 
	C512.833740,432.043610 524.799133,426.922913 526.678894,422.674591 
	C527.238647,421.409668 526.987061,419.754639 526.988281,418.278259 
	C527.004333,399.004120 526.998962,379.729980 526.998962,360.153290 
	C535.409180,360.153290 543.507446,360.153290 551.904968,360.747742 
	C552.342224,361.632263 552.556030,361.846710 552.845703,361.985565 
	C552.899170,389.688538 552.952637,417.391541 552.734375,445.691895 
	C552.252014,446.528168 552.110107,446.802551 552.036865,447.112427 
z"/>
<path fill="#F1F7F8" opacity="1.000000" stroke="none" 
	d="
M131.999664,412.805969 
	C131.372971,403.815033 131.313675,395.329529 133.961212,387.032288 
	C139.299957,370.301025 155.336685,358.866180 172.302994,358.957123 
	C181.138306,359.004486 189.783493,359.044098 197.979416,363.370605 
	C209.992126,369.711975 217.026459,379.630737 219.937027,392.545624 
	C222.013489,401.759308 221.476990,411.134918 218.898346,420.171600 
	C214.670105,434.989227 204.718643,444.699371 189.922043,448.407013 
	C175.108124,452.119019 160.681473,451.062561 147.761398,441.396118 
	C139.904739,435.518005 135.550674,427.627686 133.025131,418.460754 
	C132.556839,416.761047 132.335159,414.993378 131.999664,412.805969 
M163.016113,426.510406 
	C166.534363,427.948334 169.954422,429.739563 173.591400,430.750366 
	C181.096451,432.836151 191.751480,426.392975 193.000488,419.368347 
	C194.662155,410.022888 195.973572,400.822876 193.149933,391.297516 
	C190.701859,383.039001 186.515594,378.954498 178.275726,378.099792 
	C167.738785,377.006866 161.203278,382.940643 159.078690,390.258545 
	C155.514877,402.533813 155.862305,414.585083 163.016113,426.510406 
z"/>
<path fill="#F1F7F8" opacity="1.000000" stroke="none" 
	d="
M828.845520,446.983215 
	C827.735229,447.655518 826.638245,448.882904 825.512451,448.909973 
	C818.203552,449.085541 810.888306,449.000031 803.287964,449.000031 
	C803.287964,419.399414 803.287964,389.992432 803.287964,360.012573 
	C809.271667,360.012573 815.424194,359.558929 821.430420,360.296600 
	C823.170105,360.510284 824.944519,363.960022 825.857788,366.261658 
	C826.578430,368.077850 826.002686,370.408478 826.002686,373.518280 
	C830.086731,366.570740 834.713989,361.422455 841.843079,359.836060 
	C845.795288,358.956604 850.076538,358.754578 854.092896,359.230469 
	C857.041199,359.579834 859.826538,361.274567 859.055298,365.529266 
	C858.023010,371.224945 857.421997,376.998840 856.676514,382.441589 
	C850.775879,383.013824 845.730957,383.407166 840.711853,384.014313 
	C834.569641,384.757355 829.233948,390.851929 828.629333,397.955444 
	C828.217773,414.200439 828.122375,429.712677 828.078857,445.225037 
	C828.077209,445.810333 828.578552,446.397095 828.845520,446.983215 
z"/>
<path fill="#BFFFFF" opacity="1.000000" stroke="none" 
	d="
M309.916351,446.519958 
	C309.577789,446.396851 309.075470,445.810791 309.077148,445.226196 
	C309.127075,427.704376 309.226807,410.182739 309.581726,392.343689 
	C309.892365,410.036804 309.939941,428.047241 309.916351,446.519958 
z"/>
<path fill="#DBFFFF" opacity="1.000000" stroke="none" 
	d="
M828.916870,446.520691 
	C828.578552,446.397095 828.077209,445.810333 828.078857,445.225037 
	C828.122375,429.712677 828.217773,414.200439 828.550903,398.359741 
	C828.861023,414.040253 828.924622,430.049225 828.916870,446.520691 
z"/>
<path fill="#FFFFFF" opacity="1.000000" stroke="none" 
	d="
M552.294800,447.030518 
	C552.110107,446.802551 552.252014,446.528168 552.654236,446.155914 
	C552.748108,446.331238 552.650391,446.639923 552.294800,447.030518 
z"/>
<path fill="#FFFFFF" opacity="1.000000" stroke="none" 
	d="
M472.112488,420.283875 
	C472.447876,420.158173 472.663391,420.378326 472.883423,420.894775 
	C472.667633,420.927551 472.369202,420.740448 472.112488,420.283875 
z"/>
<path fill="#FFFFFF" opacity="1.000000" stroke="none" 
	d="
M376.112366,475.283875 
	C376.447815,475.158142 376.663330,475.378387 376.883301,475.895020 
	C376.667450,475.927765 376.369019,475.740540 376.112366,475.283875 
z"/>
<path fill="#FFFFFF" opacity="1.000000" stroke="none" 
	d="
M472.106689,362.276978 
	C472.555267,362.235443 472.636505,362.488190 472.293396,362.891266 
	C472.154175,362.976990 472.024536,362.506653 472.106689,362.276978 
z"/>
<path fill="#FFFFFF" opacity="1.000000" stroke="none" 
	d="
M376.705261,361.969666 
	C376.889679,362.197662 376.747742,362.471924 376.345764,362.844086 
	C376.251892,362.668762 376.349579,362.360077 376.705261,361.969666 
z"/>
<path fill="#FFFFFF" opacity="1.000000" stroke="none" 
	d="
M552.889282,361.718994 
	C552.556030,361.846710 552.342224,361.632263 552.124390,361.126007 
	C552.340698,361.090668 552.636780,361.271576 552.889282,361.718994 
z"/>
<path fill="#000000" opacity="1.000000" stroke="none" 
	d="
M313.999878,98.000000 
	C313.999878,84.172607 313.802155,70.840462 314.122406,57.520763 
	C314.216431,53.609581 315.003174,49.315243 316.828766,45.927395 
	C320.829865,38.502419 328.381012,37.059570 335.983154,37.052361 
	C423.277496,36.969563 510.571960,36.999615 597.866394,36.999615 
	C609.361267,36.999615 620.865295,36.736877 632.346191,37.137135 
	C636.564026,37.284180 640.905457,38.546444 644.871948,40.108646 
	C650.343750,42.263702 652.912720,47.136948 652.925903,52.737026 
	C653.050476,105.546524 653.000000,158.356445 653.000000,211.166245 
	C653.000000,211.960678 653.000000,212.755127 653.000000,213.774292 
	C539.951294,213.774292 427.249268,213.774292 313.999878,213.774292 
	C313.999878,175.333206 313.999878,136.916611 313.999878,98.000000 
z"/>
<path fill="#000000" opacity="1.000000" stroke="none" 
	d="
M479.901550,234.024445 
	C483.296265,230.785049 486.488586,231.499512 489.326569,233.936737 
	C492.164124,236.373627 493.057251,239.535522 490.980408,243.022308 
	C488.941864,246.444748 485.609283,246.562271 482.424622,245.674225 
	C478.483429,244.575241 477.599823,241.241119 478.060364,237.577454 
	C478.212616,236.366272 478.997467,235.234619 479.901550,234.024445 
z"/>
<path fill="#000000" opacity="1.000000" stroke="none" 
	d="
M402.457367,424.902618 
	C402.091003,413.156372 401.999451,401.691162 402.021423,390.226135 
	C402.030731,385.363708 409.000610,378.871155 415.386566,378.060883 
	C425.324921,376.799927 431.930603,380.755920 432.867767,391.725159 
	C433.529022,399.465210 433.639801,407.371887 432.860535,415.089478 
	C431.406403,429.490875 417.831116,434.920898 406.279785,427.726105 
	C405.058472,426.965424 403.942749,426.035278 402.457367,424.902618 
z"/>
<path fill="#000000" opacity="1.000000" stroke="none" 
	d="
M757.149780,427.348511 
	C749.241760,431.462463 741.877563,432.671967 734.198853,427.120300 
	C728.975586,423.343842 727.900635,417.926086 727.155212,412.509766 
	C726.435669,407.281860 726.476379,401.811859 727.133118,396.567139 
	C727.938171,390.137634 729.835754,383.859619 736.174988,380.354065 
	C743.273315,376.428650 750.827637,376.792999 756.667419,381.682465 
	C760.201050,384.641083 762.272705,390.268646 763.331116,395.065552 
	C765.433350,404.593750 765.136353,414.247162 760.291992,423.185883 
	C759.532593,424.587189 758.379578,425.775146 757.149780,427.348511 
z"/>
<path fill="#000000" opacity="1.000000" stroke="none" 
	d="
M162.740417,426.239136 
	C155.862305,414.585083 155.514877,402.533813 159.078690,390.258545 
	C161.203278,382.940643 167.738785,377.006866 178.275726,378.099792 
	C186.515594,378.954498 190.701859,383.039001 193.149933,391.297516 
	C195.973572,400.822876 194.662155,410.022888 193.000488,419.368347 
	C191.751480,426.392975 181.096451,432.836151 173.591400,430.750366 
	C169.954422,429.739563 166.534363,427.948334 162.740417,426.239136 
z"/>
</svg>